<?xml version="1.0" encoding="utf-8"?>
<!-- Generator: Adobe Illustrator 24.1.0, SVG Export Plug-In . SVG Version: 6.00 Build 0)  -->
<svg version="1.1" id="Layer_1" xmlns="http://www.w3.org/2000/svg" xmlns:xlink="http://www.w3.org/1999/xlink" x="0px" y="0px"
	 viewBox="0 0 117 77" style="enable-background:new 0 0 117 77;" xml:space="preserve">
<style type="text/css">
	.st0{fill-rule:evenodd;clip-rule:evenodd;fill:#2D2977;}
	.st1{fill-rule:evenodd;clip-rule:evenodd;fill:#FEFEFE;}
	.st2{fill-rule:evenodd;clip-rule:evenodd;fill:#E30620;}
</style>
<g id="flag_x2F_uk">
	<polygon id="Fill-1" class="st0" points="0,77 117,77 117,0 0,0 	"/>
	<polygon id="Fill-2" class="st1" points="104,0 0,68.4 0,77 13.2,77 117,8.8 117,0 	"/>
	<polygon id="Fill-3" class="st2" points="0,77 8.8,77 71,37 68.3,33 	"/>
	<polygon id="Fill-4" class="st2" points="108.2,0 45,41 47.7,45 117,0 	"/>
	<polygon id="Fill-5" class="st1" points="0,0 0,8.8 104.1,77 117,77 117,68.2 13,0 	"/>
	<polygon id="Fill-6" class="st2" points="57,38 117,77 117,71.2 59.7,34 	"/>
	<polygon id="Fill-7" class="st2" points="0,5.7 54.4,41 57,37 0,0 	"/>
	<polygon id="Fill-8" class="st1" points="49,77 68,77 68,0 49,0 	"/>
	<polygon id="Fill-9" class="st1" points="0,50 117,50 117,27 0,27 	"/>
	<polygon id="Fill-10" class="st2" points="0,45 117,45 117,32 0,32 	"/>
	<polygon id="Fill-11" class="st2" points="52,77 65,77 65,0 52,0 	"/>
</g>
</svg>
