<?xml version="1.0" encoding="utf-8"?>
<!-- Generator: Adobe Illustrator 23.0.6, SVG Export Plug-In . SVG Version: 6.00 Build 0)  -->
<svg version="1.1" id="Layer_1" xmlns="http://www.w3.org/2000/svg" xmlns:xlink="http://www.w3.org/1999/xlink" x="0px" y="0px"
	 viewBox="0 0 97.6 70.5" style="enable-background:new 0 0 97.6 70.5;" xml:space="preserve">
<style type="text/css">
	.st0{fill:#A7A5A6;}
	.st1{fill:none;stroke:#757474;}
	.st2{fill:#DCDCDC;}
</style>
<g id="surface0">
	<g>
		<g>
			<path class="st0" d="M78.1,26.6c4,15.6,22.4,10.8,18.5-4.4"/>
			<path class="st0" d="M13,11.3c0,0,5.1,3.2,6.6,18.6c0,0,0,15,0,40.2h40.3V29.7c0,0,1.8-15,6.8-18.4l-17-6.8v-4c0,0-9.9-0.8-9.9,6
				c0,0,1-6-9.7-6v4L13,11.3"/>
			<path class="st0" d="M12.6,69.7c0.8-1.5,6.8-33.7,6.8-33.7c0.5-11.5-3-23.2-6.5-24.2l-12.2,56L12.6,69.7"/>
			<path class="st0" d="M78.4,67.7L66.6,11.4c-3.5,1-7.2,13-6.8,24.5c0,0,5.8,32.2,6.5,33.7L78.4,67.7"/>
			<path class="st1" d="M78.1,26.6c4,15.6,22.4,10.8,18.5-4.4"/>
			<path class="st2" d="M39.3,15.2l-5,13.3H21.8l9.8,6.2L27,47.2l12.5-7.8l12.8,7.8l-5-12.2l10-6.5H44.5L39.3,15.2"/>
			<path class="st0" d="M88.8,30.2c5.6-1.4,8.9-7.1,7.5-12.6c-1.4-5.6-7.1-8.9-12.6-7.5c-5.6,1.4-8.9,7.1-7.5,12.6
				S83.3,31.6,88.8,30.2"/>
			<path class="st2" d="M12.7,39.1L11,41.8l-2.8-0.6l1.5,3.2l-1.7,3.5l3.4-2l2.5,3.2l-0.4-3.9l2.5-2.4l-2.5-0.5L12.7,39.1"/>
			<path class="st2" d="M10.3,52.5l-1.7,2.7l-2.8-0.6l1.5,3.2l-1.7,3.5l3.4-2l2.5,3.2l-0.4-3.9l2.5-2.4L11,55.7L10.3,52.5"/>
			<path class="st2" d="M15.5,25.3L13.8,28L11,27.4l1.5,3.2l-1.7,3.5l3.4-2l2.5,3.2l-0.4-3.9l2.5-2.4l-2.5-0.5L15.5,25.3"/>
			<path class="st2" d="M67.3,38.8l1.7,2.7l2.8-0.6l-1.5,3.2l1.7,3.5l-3.4-2l-2.5,3.2l0.4-3.9l-2.5-2.4l2.5-0.5L67.3,38.8"/>
			<path class="st2" d="M69.7,52.3l1.7,2.7l2.8-0.6l-1.5,3.2l1.7,3.5l-3.4-2l-2.5,3.2l0.4-3.9L66.5,56l2.5-0.5L69.7,52.3"/>
			<path class="st2" d="M64.6,25l1.7,2.7l2.8-0.6l-1.5,3.2l1.7,3.5l-3.4-2L63.4,35l0.4-3.9l-2.5-2.4l2.5-0.5L64.6,25"/>
			<path class="st2" d="M87.2,24.6l-0.4,1.8l-1.7,0.3l1.5,1.4l-0.2,2.3l1.5-1.8l2,1.2l-1-2.1l0.9-1.8l-1.5,0.2L87.2,24.6"/>
			<path class="st2" d="M90.7,13.2L90.3,15l-1.7,0.3l1.5,1.4L89.9,19l1.5-1.8l2,1.2l-1-2.1l0.9-1.8l-1.5,0.2L90.7,13.2"/>
			<path class="st2" d="M91.9,20.2l-0.4,1.8l-1.7,0.3l1.5,1.4l-0.2,2.3l1.5-1.8l2,1.2l-1-2.1l0.9-1.8L93,21.8L91.9,20.2"/>
			<path class="st2" d="M79.7,14.3l-0.4,1.8l-1.7,0.3l1.5,1.4l-0.2,2.3l1.5-1.8l2,1.2l-1-2.1l0.9-1.8l-1.5,0.2L79.7,14.3"/>
			<path class="st2" d="M85.7,17.8l-0.4,1.8l-1.7,0.3l1.5,1.4l-0.2,2.3l1.5-1.8l2,1.2l-1-2.1l0.9-1.8l-1.5,0.2L85.7,17.8"/>
			<path class="st2" d="M80.3,21L80,22.9l-1.7,0.3l1.5,1.4l-0.2,2.3L81,25l2,1.2l-1-2.1l0.9-1.8l-1.5,0.2L80.3,21"/>
			<path class="st2" d="M84.9,10.5l-0.4,1.8l-1.7,0.3l1.5,1.4l-0.2,2.3l1.5-1.8l2,1.2l-1-2.1l0.9-1.8l-1.5,0.2L84.9,10.5"/>
			<path class="st1" d="M12.6,69.7c0.8-1.5,6.8-33.8,6.8-33.8c0.5-11.5-3-23.2-6.5-24.2l-12.2,56L12.6,69.7z"/>
			<path class="st1" d="M13,11.3c0,0,5.1,3.2,6.6,18.6c0,0,0,15,0,40.2h40.3V29.7c0,0,1.8-15,6.8-18.4l-17-6.8v-4c0,0-9.9-0.8-9.9,6
				c0,0,1-6-9.7-6v4L13,11.3z"/>
			<path class="st1" d="M78.4,67.7L66.6,11.4c-3.5,1-7.2,13-6.8,24.5c0,0,5.8,32.3,6.5,33.8L78.4,67.7z"/>
			<path class="st1" d="M88.8,30.2c5.6-1.4,8.9-7.1,7.5-12.6c-1.4-5.6-7.1-8.9-12.6-7.5c-5.6,1.4-8.9,7.1-7.5,12.6
				S83.3,31.6,88.8,30.2z"/>
		</g>
	</g>
</g>
</svg>
